<svg width="387" height="386" viewBox="0 0 387 386" fill="none" xmlns="http://www.w3.org/2000/svg">
<path d="M32 297C15.3019 270.619 5.13939 240.634 2.35662 209.537C-0.426143 178.439 4.25117 147.127 16 118.2C25.1785 94.3304 39.3574 72.7007 57.5849 54.763C75.8123 36.8253 97.6664 22.9948 121.68 14.2C259.6 -36.28 388.8 66.68 385.2 198.2C382.32 301.16 291.36 385 188.72 385H21.76C21.76 385 71.04 362.36 32 297Z" fill="#D13D61"/>
<path fill-rule="evenodd" clip-rule="evenodd" d="M384.2 198.173C387.782 67.3413 259.264 -35.0921 122.024 15.1391C98.1442 23.8849 76.412 37.6382 58.2863 55.4758C40.1605 73.3134 26.0607 94.8225 16.9334 118.559L16.9265 118.576C5.23753 147.356 0.584058 178.509 3.35264 209.448C6.12123 240.387 16.232 270.218 32.845 296.465L32.8486 296.471C32.852 296.476 32.8553 296.482 32.8585 296.487C52.5143 329.394 50.0449 351.774 42.4007 365.984C38.599 373.051 33.5546 378.024 29.467 381.228C28.0109 382.37 26.6738 383.289 25.5537 384H188.72C290.849 384 381.336 300.562 384.2 198.173ZM21.3426 384.091L21.3681 384.079C21.3882 384.07 21.4198 384.055 21.4624 384.034C21.5474 383.993 21.6762 383.929 21.8445 383.842C22.1811 383.667 22.6757 383.401 23.2948 383.037C24.5334 382.31 26.2681 381.195 28.2331 379.654C32.1654 376.571 37.0011 371.799 40.6394 365.036C47.8743 351.587 50.5252 329.971 31.1482 297.524C14.3691 271.011 4.15717 240.878 1.3606 209.626C-1.43606 178.373 3.26386 146.904 15.07 117.832C24.2998 93.8332 38.5565 72.0859 56.8835 54.0503C75.2126 36.0126 97.1886 22.1049 121.336 13.261C259.936 -37.4678 389.819 66.0187 386.2 198.227C383.304 301.758 291.871 386 188.72 386H21.76C21.2901 386 20.8835 385.673 20.7831 385.214C20.6828 384.755 20.9159 384.288 21.3426 384.091C21.3427 384.091 21.3424 384.091 21.3426 384.091Z" fill="#D13D61"/>
<path d="M222.26 194.833C224.213 194.833 225.189 196.42 225.189 199.594C225.189 202.686 224.498 208.057 223.114 215.707C222.056 220.834 216.197 228.158 205.536 237.68C192.678 249.073 178.559 257.211 163.178 262.094C153.9 265.023 144.826 266.488 135.956 266.488C127.167 266.488 119.11 262.785 111.786 255.38C104.543 247.893 100.922 239.063 100.922 228.891C100.922 218.637 102.956 208.057 107.025 197.152C111.176 186.166 116.71 175.709 123.627 165.78C130.626 155.771 138.845 146.168 148.285 136.972C157.807 127.776 167.694 119.8 177.948 113.046C188.202 106.291 198.944 100.92 210.175 96.9326C221.405 92.945 232.066 90.9512 242.157 90.9512C250.132 90.9512 256.928 93.8402 262.543 99.6182C265.473 102.711 266.938 106.617 266.938 111.337C266.938 115.976 264.659 121.876 260.102 129.037C255.544 136.117 250.132 142.587 243.866 148.446C237.681 154.306 231.252 159.27 224.579 163.339C217.987 167.408 212.698 169.442 208.71 169.442C204.722 169.442 201.304 168.222 198.456 165.78C195.608 163.257 194.184 161.02 194.184 159.066C194.184 157.113 194.59 154.957 195.404 152.597C196.299 150.237 197.398 149.057 198.7 149.057C198.375 149.464 198.212 149.87 198.212 150.277C198.212 151.254 199.595 151.742 202.362 151.742C205.211 151.742 209.931 149.26 216.522 144.296C223.114 139.332 229.055 133.757 234.345 127.572C239.716 121.387 242.401 116.749 242.401 113.656C242.401 111.54 240.977 110.482 238.129 110.482C230.479 110.482 219.9 114.063 206.391 121.225C192.963 128.305 180.105 137.46 167.816 148.69C155.528 159.921 144.826 173.267 135.712 188.729C126.679 204.11 122.162 217.945 122.162 230.233C122.162 235.36 123.505 239.47 126.19 242.562C128.957 245.655 133.148 247.201 138.764 247.201C144.46 247.201 151.174 245.574 158.905 242.318C166.636 239.063 173.961 235.076 180.878 230.355C187.877 225.635 194.468 220.793 200.653 215.829C206.838 210.865 211.762 206.511 215.424 202.768C219.167 199.024 221.08 196.786 221.161 196.054C221.243 195.24 221.609 194.833 222.26 194.833Z" fill="white"/>
<path d="M241.303 264.779C241.303 259.815 243.256 255.421 247.162 251.596C251.068 247.689 254.893 245.736 258.637 245.736C265.391 245.736 268.769 248.503 268.769 254.037C268.769 258.594 266.856 262.989 263.031 267.221C259.206 271.534 254.893 273.69 250.092 273.69C244.232 273.69 241.303 270.72 241.303 264.779Z" fill="white"/>
</svg>
