<?xml version="1.0" standalone="no"?>
<!DOCTYPE svg PUBLIC "-//W3C//DTD SVG 20010904//EN"
 "http://www.w3.org/TR/2001/REC-SVG-20010904/DTD/svg10.dtd">
<svg version="1.0" xmlns="http://www.w3.org/2000/svg"
 width="700.000000pt" height="700.000000pt" viewBox="0 0 700.000000 700.000000"
 preserveAspectRatio="xMidYMid meet">
<metadata>
Created by potrace 1.11, written by Peter Selinger 2001-2013
</metadata>
<g transform="translate(0.000000,700.000000) scale(0.100000,-0.100000)"
fill="#000000" stroke="none">
<path d="M3330 6130 c-470 -37 -938 -190 -1295 -424 -434 -285 -752 -676 -950
-1170 -222 -554 -261 -1123 -115 -1697 57 -227 162 -483 279 -679 93 -158 187
-354 217 -455 20 -68 27 -120 31 -215 6 -148 -8 -223 -62 -330 -42 -83 -150
-201 -224 -245 -28 -16 -51 -36 -51 -43 0 -10 236 -12 1268 -9 1239 3 1270 3
1399 24 452 74 836 230 1197 487 900 642 1311 1713 1056 2752 -205 839 -815
1530 -1620 1838 -347 132 -771 195 -1130 166z m981 -1255 c63 -22 143 -80 175
-127 40 -57 45 -157 14 -240 -81 -216 -384 -524 -634 -644 -130 -62 -208 -55
-290 27 -48 48 -49 50 -43 98 6 53 31 111 47 111 6 0 10 -6 10 -14 0 -20 49
-26 94 -11 143 50 480 378 502 491 7 38 -15 64 -54 64 -135 -1 -392 -109 -627
-264 -459 -302 -838 -784 -935 -1188 -26 -109 -27 -247 -1 -303 100 -221 486
-118 985 264 130 99 301 254 329 297 15 23 29 33 42 32 16 -3 21 -12 23 -53 5
-69 -16 -211 -39 -264 -34 -78 -136 -190 -282 -309 -272 -222 -606 -350 -892
-340 -98 3 -117 7 -176 34 -129 61 -253 208 -289 343 -16 62 -14 240 5 340
116 610 743 1305 1420 1574 84 34 252 81 320 90 82 11 255 6 296 -8z m196
-2120 c93 -61 19 -267 -120 -334 -58 -28 -135 -28 -170 0 -74 57 -48 203 50
290 78 68 175 86 240 44z"/>
</g>
</svg>
