<?xml version="1.0" standalone="no"?>
<!DOCTYPE svg PUBLIC "-//W3C//DTD SVG 20010904//EN"
 "http://www.w3.org/TR/2001/REC-SVG-20010904/DTD/svg10.dtd">
<svg version="1.0" xmlns="http://www.w3.org/2000/svg"
 width="512.000000pt" height="512.000000pt" viewBox="0 0 512.000000 512.000000"
 preserveAspectRatio="xMidYMid meet">
<metadata>
Created by potrace 1.11, written by Peter Selinger 2001-2013
</metadata>
<g transform="translate(0.000000,512.000000) scale(0.100000,-0.100000)"
fill="#000000" stroke="none">
<path d="M2382 4479 c-373 -36 -739 -178 -1017 -394 -104 -81 -266 -248 -343
-353 -180 -243 -312 -575 -356 -891 -21 -144 -21 -398 0 -542 38 -277 125
-513 288 -789 92 -155 145 -316 146 -442 0 -159 -74 -304 -199 -389 -28 -19
-51 -37 -51 -41 0 -12 1756 -10 1868 3 383 41 754 196 1052 436 98 80 280 268
352 364 250 335 377 712 378 1121 1 674 -342 1284 -923 1645 -346 214 -778
313 -1195 272z m771 -913 c106 -38 164 -117 154 -208 -19 -155 -245 -410 -465
-525 -103 -54 -200 -41 -248 31 -17 27 -14 79 7 119 9 16 11 16 26 1 38 -37
157 30 294 167 93 93 142 165 137 201 -5 36 -81 37 -177 2 -433 -153 -870
-591 -992 -994 -31 -101 -32 -221 -4 -270 77 -131 325 -75 629 143 135 96 287
227 318 273 48 71 69 18 48 -118 -6 -38 -18 -84 -26 -101 -25 -48 -200 -216
-284 -272 -41 -27 -109 -66 -150 -87 -148 -72 -366 -118 -472 -98 -108 21
-216 109 -265 217 -67 146 -29 380 101 629 74 142 150 246 281 382 271 284
599 476 880 515 66 9 172 5 208 -7z m144 -1551 c74 -52 -3 -222 -115 -256
-148 -44 -178 141 -39 242 46 33 117 40 154 14z"/>
</g>
</svg>
